<?xml version="1.0" encoding="utf-8"?>
<!-- Generator: Adobe Illustrator 16.0.0, SVG Export Plug-In . SVG Version: 6.00 Build 0)  -->
<!DOCTYPE svg PUBLIC "-//W3C//DTD SVG 1.1//EN" "http://www.w3.org/Graphics/SVG/1.1/DTD/svg11.dtd">
<svg version="1.1" id="Layer_1" xmlns="http://www.w3.org/2000/svg" xmlns:xlink="http://www.w3.org/1999/xlink" x="0px" y="0px"
	 width="600px" height="600px" viewBox="0 0 600 600" enable-background="new 0 0 600 600" xml:space="preserve">
<path fill="#2489C0" d="M64.061,312.935l-0.237-6.937l0.187-8.11c0.034-5,0.661-9.958,1-14.933
	c1.203-9.899,2.779-19.772,5.339-29.434c2.305-9.695,5.475-19.179,9.339-28.356c3.678-9.255,8.322-18.052,13.204-26.688
	c5.034-8.534,10.526-16.771,16.594-24.568c6.289-7.619,12.831-15.018,20.035-21.704c14.153-13.645,30.272-25.077,47.544-33.908
	c8.627-4.466,17.526-8.288,26.628-11.475c9.169-2.916,18.39-5.594,27.797-7.271c9.356-1.839,18.848-2.737,28.272-3.076
	c9.44-0.5,18.882,0.229,28.085,1.203c-9.271,1.356-18.374,2.754-27.255,4.992c-8.949,1.983-17.61,4.839-26.103,7.89
	c-8.525,2.949-16.645,6.848-24.628,10.848c-7.848,4.263-15.61,8.568-22.848,13.636c-7.255,5.034-14.204,10.45-20.729,16.331
	c-6.628,5.712-12.814,11.916-18.526,18.466c-5.831,6.45-10.949,13.483-15.831,20.611c-4.898,7.119-9.305,14.542-13.271,22.161
	c-3.77,7.730-7.39,15.535-10.119,23.662c-2.813,8.085-5.187,16.306-7,24.645c-2.017,8.297-3,16.797-3.933,25.255
	c-0.22,4.28-0.746,8.5-0.712,12.771l-0.152,5.763l0.305,6.937l0.339,6.882l0.729,6c0.339,3.933,0.966,8.085,1.813,12.356
	c0.661,4.237,1.525,8.44,2.645,12.61c1,4.203,2,8.39,3.373,12.509c2.39,8.322,5.355,16.509,8.593,24.543
	c1.78,3.967,3.373,8.018,5.254,11.916l1.898-0.661l16.051-4.543l16.238-3.542c5.458-0.864,10.882-1.864,16.339-2.56l16.441-1.424
	l16.441-0.542l16.391,0.339c5.458,0.339,10.916,0.813,16.339,1.339l16.17,2.339c5.339,0.966,10.662,2.136,15.967,3.221
	c10.593,2.373,20.933,5.763,31.069,9.458c5.067,1.898,10,4.119,14.933,6.203c3.288,1.56,6.475,3.255,9.661,4.949l-0.152-0.254
	c-15.391-23.306-27.577-48.357-36.662-74.477c-2.187-6.543-4.407-13.086-6.221-19.747c-1.78-6.661-3.509-13.335-4.898-20.089
	c-1.542-6.695-2.729-13.483-3.916-20.238c-0.983-6.806-2.339-14.018-2.729-20.45l-0.847-10.22l-0.542-10.28
	c-0.305-6.831-0.39-13.662-0.356-20.467c0.135-13.636,1.39-27.171,2.78-40.586c1.525-13.425,4-26.696,6.729-39.841
	c2.966-13.11,6.356-26.111,10.933-38.713c-0.61,13.373-1,26.62-0.966,39.832c-0.067,6.593-0.085,13.178,0.051,19.755l0.661,19.645
	c0.288,6.517,0.542,13.034,1.119,19.509c0.424,6.492,1.254,12.924,1.814,19.356c0.644,6.424,1.424,12.814,2.373,19.17l1.542,9.466
	l1.831,9.483c1.305,6.687,2.577,12.492,3.95,18.704c1.525,6.204,3.017,12.416,4.848,18.526c1.694,6.136,3.712,12.17,5.746,18.183
	c2.017,6.017,4.118,12.017,6.373,17.933c7.813,20.103,17.119,39.577,28.018,57.951c1.542-0.322,3.067-0.678,4.61-0.967
	c5.644-1.084,11.306-2.152,17.017-2.864c11.391-1.61,22.883-2.152,34.324-2.39c11.457-0.102,22.882,0.406,34.204,1.56
	c11.339,1.423,22.526,3.321,33.595,5.796c11.033,2.458,21.864,5.679,32.458,9.476c10.594,3.779,21.018,7.864,31.019,12.882
	c10.017,4.949,19.864,10.136,29.152,16.255c9.356,5.966,18.408,12.407,26.611,19.797c-9.983-4.661-20.102-8.661-30.271-12.373
	c-10.221-3.594-20.374-7.068-30.747-9.865c-10.356-2.763-20.645-5.509-31.086-7.491c-10.424-2-20.865-3.543-31.272-4.898
	c-10.44-1.203-20.916-1.848-31.322-2.051c-5.204,0.067-10.407-0.238-15.577,0c-5.204,0.017-10.356,0.373-15.543,0.711
	c-10.306,0.814-20.56,2.103-30.696,4.018c-5.084,0.779-10.102,1.915-15.102,3.018c-5.068,1.051-9.983,2.644-14.967,3.83
	l-4.729,1.119c1.712,1.084,3.457,2.118,5.152,3.203c4.339,3.136,8.56,6.39,12.713,9.627l-14.492-6.305l-14.713-5.322
	c-9.915-3.119-19.933-5.678-29.95-7.797c-5.084-0.848-10.085-1.898-15.17-2.576l-15.204-1.814l-15.238-1.084l-15.255-0.237
	c-5.067,0.203-10.152,0.339-15.187,0.424l-15.103,1.067l-15,1.882l-14.797,2.678l-14.627,3.221l-14.374,3.983l-14.017,4.813
	l-13.611,5.661l-13.068,5.475l-6.662-12.221l-7.017-12.949c-2.254-4.373-4.17-8.882-6.271-13.34
	c-3.881-9-7.509-18.153-10.373-27.577c-1.593-4.661-2.797-9.458-3.983-14.255c-1.288-4.763-2.322-9.61-3.152-14.525
	c-0.983-4.797-1.797-9.78-2.306-15.068l-0.813-7.797L64.061,312.935z M584.534,498.449c-3.525,0.373-8.797,1.288-15.322,1.83
	c-6.525,0.661-14.373,1.17-23.391,1.475c-9.017,0.254-19.119-0.067-30.001-0.746c-10.882-0.864-22.526-2.475-34.747-4.779
	c-12.221-2.187-24.898-5.848-38.001-9.525c-26.221-7.713-53.9-18.221-82.664-28.052c-14.39-4.763-28.949-9.594-43.729-13.391
	c-14.729-3.915-29.51-7.204-44.086-9.204c-14.542-2.152-28.814-3.067-42.34-2.966c-13.475-0.288-26.255,1.119-37.814,2.848
	c-11.611,1.661-22.052,4.085-31.103,6.797c-9.136,2.288-16.729,5.627-23.035,7.864c-6.254,2.441-10.966,4.949-14.221,6.391
	c-3.237,1.559-4.932,2.39-4.932,2.39s7.695-0.797,20.729-2.39c6.628-0.458,14.509-1.441,23.577-1.763
	c9.018-0.543,19.188-0.526,30.154-0.322c5.492,0.254,11.187,0.322,17.035,1.034c5.881,0.44,11.915,0.898,18.102,1.797
	c12.339,1.508,25.204,4.169,38.458,7.186c13.255,2.933,26.781,7.035,40.611,11.17c13.764,4.306,27.814,9.018,41.984,13.899
	c14.204,4.712,28.51,9.678,42.985,13.966c14.424,4.356,28.865,8.322,43.255,11.137c14.356,2.915,28.492,4.848,42.019,5.56
	c6.712,0.593,13.356,0.491,19.695,0.542c6.407-0.424,12.509-0.576,18.391-1.271c11.712-1.135,22.306-3.288,31.476-5.695
	c4.56-1.321,8.831-2.305,12.729-3.694c3.848-1.424,7.373-2.746,10.56-3.933c6.355-2.221,10.848-4.932,14.152-6.339
	c3.221-1.576,4.933-2.424,4.933-2.424S588.111,498.042,584.534,498.449z M368.918,552.959c6.712,0.594,13.355,0.492,19.695,0.543
	c6.39-0.424,12.509-0.576,18.373-1.255c11.746-1.136,22.306-3.305,31.476-5.712c4.576-1.322,8.864-2.305,12.746-3.695
	c3.813-1.424,7.356-2.746,10.543-3.915c6.356-2.237,10.864-4.949,14.17-6.356c3.221-1.576,4.933-2.424,4.933-2.424
	s-1.916,0.221-5.458,0.627c-3.543,0.373-8.813,1.289-15.34,1.814c-6.509,0.678-14.356,1.186-23.407,1.475
	c-8.983,0.254-19.103-0.068-29.967-0.746c-10.898-0.848-22.543-2.475-34.747-4.779c-12.221-2.17-24.899-5.848-38.019-9.51
	c-26.221-7.712-53.917-18.237-82.646-28.051c-14.407-4.764-28.95-9.611-43.73-13.408c-14.747-3.915-29.509-7.203-44.103-9.203
	c-14.526-2.152-28.814-3.068-42.34-2.949c-13.475-0.288-26.255,1.102-37.832,2.83c-11.577,1.679-22.018,4.085-31.069,6.814
	c-9.136,2.288-16.746,5.61-23.034,7.848c-6.271,2.44-10.95,4.949-14.221,6.39c-3.221,1.576-4.933,2.407-4.933,2.407
	s7.678-0.831,20.746-2.407c6.61-0.44,14.476-1.44,23.561-1.763c9.017-0.525,19.187-0.508,30.153-0.322
	c5.492,0.255,11.17,0.306,17.034,1.018c5.882,0.475,11.916,0.932,18.086,1.848c12.356,1.475,25.221,4.135,38.458,7.152
	c13.254,2.949,26.797,7.034,40.612,11.187c13.78,4.288,27.831,9.018,42.001,13.899c14.187,4.694,28.492,9.661,42.95,13.966
	c14.441,4.356,28.899,8.306,43.29,11.136C341.238,550.314,355.357,552.264,368.918,552.959z M295.407,79.279
	c-2.983,0.059-4.678,0.085-4.678,0.085l3.949-32.866c0,0,1.627,0.441,4.525,1.187c2.848,0.754,7.34,1.941,12.458,3.458
	c2.61,0.788,5.424,1.678,8.509,2.746c3.152,1.153,6.356,2.263,10.611,4.483c0.982,0.508,2.338,1.331,3.644,2.263
	c0.831,0.653,1.525,1.178,2.407,2.034c1.017,1.127,1.779,1.839,2.779,3.729c1.83,2.805,1.949,7.661,1.136,10.203l0.593,0.246
	l0.271,0.093c0.779,0.178,0.373,0.119,0.627,0.204l0.576,0.245l2.322,1.009c3.136,1.39,6.068,2.517,9.137,4.06
	c3.084,1.619,6.033,3.11,8.712,4.661c2.593,1.737,5.017,3.254,7.136,4.856c2.051,1.78,4,3.161,5.491,4.754
	c1.492,1.568,2.831,2.848,3.712,4.127c1.916,2.365,2.543,4.008,2.543,4.008s-1.119-1.313-3.645-2.839
	c-1.152-0.848-2.797-1.593-4.576-2.5c-1.746-0.907-4.018-1.542-6.254-2.424c-2.34-0.737-4.967-1.305-7.628-2
	c-2.695-0.415-5.542-0.848-8.475-1.288c-2.933-0.382-6.424-0.483-9.729-0.754l-2.525-0.161l-0.645-0.051
	c0.068,0.034-0.542-0.077,0.034,0.059l-0.339-0.025l-1.406-0.127c-1.865-0.161-3.746-0.373-5.933-0.839
	c-2.17-0.627-4.339-0.687-8.306-3.737c-1.17-1.145-2.17-2.068-3.152-4.187c-0.627-1.187-0.916-2.789-1.034-4.28
	c-1.17-0.102-2.44-0.203-3.645-0.271c-2.661-0.093-5.169-0.161-7.509-0.237C302.237,79.144,298.39,79.228,295.407,79.279z
	 M336.476,74.711c0.051,0.034,0.187,0.093,0.271,0.144c-0.339-0.458-0.661-0.796-0.915-0.881
	C334.391,73.143,335.476,74.262,336.476,74.711z M319.848,71.151c-0.169,0.195-0.287,0.763-0.355,1.449
	c0.187-0.44,0.355-0.822,0.424-1.085C320.34,70.635,320.271,70.236,319.848,71.151z M359.748,206.97
	c-6.018-7.475-11.695-14.535-16.95-21.061c-10.407-13.145-18.898-24.297-24.831-32.145c-5.916-7.907-9.271-12.425-9.271-12.425
	s2.051,5.28,6.355,14.196c4.322,8.907,10.78,21.509,19.646,35.976c8.61,14.645,19.848,30.984,32.492,48.069
	c6.661,8.263,13.052,17.238,20.509,25.56c7.306,8.407,14.662,17.094,22.561,25.247l11.814,12.212
	c4.118,3.898,8.186,7.775,12.254,11.623c7.898,7.898,16.492,14.848,24.645,21.662c4.137,3.355,8.001,6.898,12.119,9.949
	c4.153,3,8.204,5.967,12.17,8.831c3.933,2.847,7.764,5.644,11.475,8.322c3.78,2.61,7.645,4.83,11.238,7.118
	c7.187,4.525,13.831,8.594,19.797,12.035c6.17,3.135,11.543,5.864,15.95,8.102c8.882,4.39,13.983,6.729,13.983,6.729
	s-4.391-3.609-12.188-9.645c-3.898-2.949-8.644-6.559-14.067-10.678c-5.271-4.339-11.204-9.221-17.679-14.543
	c-6.594-5.136-13.34-11.187-20.51-17.509c-7.237-6.221-14.729-12.933-22.288-20.136c-3.797-3.543-7.679-7.137-11.577-10.798
	c-3.797-3.779-7.661-7.58-11.525-11.428c-3.882-3.831-7.814-7.695-11.746-11.577l-11.391-12.127
	c-15.543-15.848-29.949-32.764-43.73-48.417C372.477,221.97,365.68,214.486,359.748,206.97z M253.185,197.079
	c0.441-7.093,1.288-13.763,1.865-19.983c1.525-12.374,2.966-22.772,4.237-30.035c1.152-7.288,2.017-11.466,2.017-11.466
	s-8.813,14.797-15.916,39.535c-1.644,6.204-3.678,12.916-4.865,20.17c-1.593,7.237-2.797,14.933-3.576,22.992
	c-1.051,8.017-1.187,16.416-1.509,24.933c0.407,8.509,0.407,17.204,1.424,25.84c1.407,8.602,2.221,17.297,4.627,25.568
	c1,4.179,2.084,8.297,3.22,12.348c1.187,4.021,2.916,7.853,4.339,11.684c1.492,3.813,2.865,7.576,4.424,11.187
	c1.796,3.509,3.746,6.848,5.542,10.118c1.848,3.255,3.627,6.407,5.356,9.459c1.661,3.084,4.084,5.593,5.949,8.221
	c3.949,5.169,7.593,9.848,11.017,13.779c3.746,3.678,7.169,6.729,9.933,9.255c5.559,5,8.797,7.678,8.797,7.678
	s-2.204-3.729-6.204-9.933c-2-3.084-4.39-6.83-7.254-10.966c-2.339-4.458-4.983-9.492-7.865-15.001
	c-3.187-5.271-5.441-11.576-8.102-18.051c-1.322-3.238-2.763-6.509-4.034-9.949c-0.949-3.543-2.119-7.086-3.221-10.729
	c-1.051-3.661-2.424-7.268-3.237-11.09c-0.712-3.848-1.525-7.729-2.424-11.602c-2.085-7.704-2.576-15.865-3.729-23.891
	c-1.153-8.018-1.339-16.195-1.916-24.188c0.237-8.042-0.61-15.967-0.034-23.662C252.371,211.622,252.507,204.147,253.185,197.079z"
	/>
</svg>
